<?xml version="1.0" standalone="no"?>
<!DOCTYPE svg PUBLIC "-//W3C//DTD SVG 20010904//EN"
 "http://www.w3.org/TR/2001/REC-SVG-20010904/DTD/svg10.dtd">
<svg version="1.0" xmlns="http://www.w3.org/2000/svg"
 width="100.000000pt" height="100.000000pt" viewBox="0 0 100.000000 100.000000"
 preserveAspectRatio="xMidYMid meet">
<metadata>
Created by potrace 1.14, written by Peter Selinger 2001-2017
</metadata>
<g transform="translate(0.000000,100.000000) scale(0.100000,-0.100000)"
fill="#000000" stroke="none">
<path d="M383 951 c-102 -33 -181 -87 -237 -162 -103 -137 -125 -303 -61 -464
l27 -67 -50 -118 -49 -119 59 2 60 2 50 120 c28 66 65 156 83 200 19 46 36 74
39 65 22 -65 96 -309 96 -318 0 -30 24 0 136 168 65 99 121 180 124 180 3 0 6
-28 6 -63 3 -137 -2 -124 52 -121 26 1 50 3 54 3 4 1 5 29 3 64 -2 34 -7 127
-10 207 -7 150 -11 223 -14 228 0 1 -30 -39 -64 -90 -35 -51 -92 -133 -126
-183 -35 -49 -75 -107 -89 -129 l-26 -38 -18 53 c-9 30 -38 120 -63 202 -26
81 -50 147 -53 147 -4 0 -43 -87 -87 -192 l-79 -191 -15 34 c-11 23 -16 66
-16 134 0 92 3 106 32 167 131 276 500 320 687 81 104 -132 114 -328 23 -469
-43 -68 -146 -152 -168 -138 -15 9 -79 11 -79 2 0 -4 -15 -8 -32 -10 -39 -4
-35 -23 5 -22 26 0 40 -15 15 -17 -7 -1 -21 -2 -30 -3 -42 -3 -18 -22 40 -30
59 -8 67 -7 120 20 31 16 83 56 117 89 186 186 186 474 -2 660 -127 126 -297
169 -460 116z"/>
</g>
</svg>
